# This file uses centimeters as units for non-parametric coordinates.

mtllib Bathroom_Gallery_Window.mtl
g default
v -30.479980 3.058807 1.905029
v 30.479980 3.058807 1.905029
v -30.479980 64.018799 1.905029
v 30.479980 64.018799 1.905029
v -30.479980 64.018799 -1.905029
v 30.479980 64.018799 -1.905029
v -30.479980 3.058807 -1.905029
v 30.479980 3.058807 -1.905029
v -25.479980 8.058807 1.905029
v 25.480042 8.058807 1.905029
v 25.480042 59.018799 1.905029
v -25.479980 59.018799 1.905029
v -25.479980 59.018799 -1.905029
v 25.480042 59.018799 -1.905029
v 25.480042 8.058807 -1.905029
v -25.479980 8.058807 -1.905029
v -27.369177 36.038788 1.365331
v 27.369238 36.038788 1.365331
v -27.369177 36.038788 -1.365331
v 27.369238 36.038788 -1.365331
v 27.369238 31.038788 1.365331
v -27.369177 31.038788 1.365331
v -27.369177 31.038788 -1.365331
v 27.369238 31.038788 -1.365331
v -30.479980 3.058807 -5.760376
v 30.479980 3.058807 -5.760376
v -30.479980 64.018799 -5.760376
v 30.479980 64.018799 -5.760376
v -30.479980 64.018799 5.760376
v 30.479980 64.018799 5.760376
v -30.479980 3.058807 5.760376
v 30.479980 3.058807 5.760376
v -33.538818 67.077576 -5.760376
v 33.538757 67.077576 -5.760376
v 33.538757 67.077576 5.760376
v -33.538818 67.077576 5.760376
v -33.538818 0.000000 5.760376
v 33.538757 0.000000 5.760376
v 33.538757 0.000000 -5.760376
v -33.538818 0.000000 -5.760376
v -25.479980 59.018799 0.715942
v 25.480042 59.018799 0.715942
v 25.480042 8.058807 0.715942
v -25.479980 8.058807 0.715942
v -25.479980 59.018799 -0.715942
v 25.480042 59.018799 -0.715942
v -25.479980 8.058807 -0.715942
v 25.480042 8.058807 -0.715942
vt 0.815819 0.418333
vt 0.815819 0.001466
vt 0.841873 0.001466
vt 0.841873 0.418333
vt 0.962364 0.418330
vt 0.962364 0.001465
vt 0.988419 0.001465
vt 0.988419 0.418330
vt 0.931376 0.003020
vt 0.957431 0.003020
vt 0.957431 0.419886
vt 0.931376 0.419886
vt 0.971006 0.428790
vt 0.997061 0.428790
vt 0.997061 0.845652
vt 0.971006 0.845652
vt 0.422879 0.867892
vt 0.481397 0.002146
vt 0.447206 0.036338
vt 0.457071 0.902083
vt 0.420763 0.902090
vt 0.386572 0.867898
vt 0.603958 0.384548
vt 0.569766 0.418740
vt 0.003898 0.907596
vt 0.964066 0.430096
vt 0.929874 0.464288
vt 0.038090 0.941788
vt 0.808941 0.943183
vt 0.774749 0.908992
vt 0.810807 0.384140
vt 0.776615 0.418332
vt 0.834727 0.780390
vt 0.834727 0.431907
vt 0.860782 0.431907
vt 0.860782 0.780390
vt 0.892200 0.431816
vt 0.892200 0.780299
vt 0.866146 0.780299
vt 0.866146 0.431816
vt 0.475275 0.430578
vt 0.475275 0.779060
vt 0.449220 0.779060
vt 0.449220 0.430578
vt 0.896824 0.778673
vt 0.896824 0.430191
vt 0.922879 0.430191
vt 0.922879 0.778673
vt 0.022074 0.820792
vt 0.383242 0.820792
vt 0.383242 0.840145
vt 0.022074 0.840145
vt 0.753828 0.860923
vt 0.392657 0.860923
vt 0.392657 0.825486
vt 0.753828 0.825486
vt 0.392657 0.784188
vt 0.753829 0.784188
vt 0.753829 0.819625
vt 0.392657 0.819625
vt 0.384627 0.863917
vt 0.023456 0.863918
vt 0.023456 0.844564
vt 0.384627 0.844565
vt 0.248653 0.461725
vt 0.248653 0.003023
vt 0.169870 0.003023
vt 0.169870 0.461725
vt 0.138406 0.461725
vt 0.138406 0.003023
vt 0.059623 0.003023
vt 0.059623 0.461725
vt 0.332680 0.004709
vt 0.253897 0.004709
vt 0.253897 0.463411
vt 0.332680 0.463411
vt 0.442760 0.004709
vt 0.363976 0.004709
vt 0.363976 0.463411
vt 0.442760 0.463411
vt 0.032352 0.442493
vt 0.484876 0.948540
vt 0.463960 0.969458
vt 0.053270 0.463410
vt 0.164776 0.025932
vt 0.441680 0.995856
vt 0.462597 0.974939
vt 0.143859 0.005015
vt 0.337120 0.440808
vt 0.024815 0.948558
vt 0.003898 0.969475
vt 0.358037 0.461725
vt 0.025641 0.025501
vt 0.901738 0.996385
vt 0.922655 0.975468
vt 0.004724 0.004584
vt 0.770829 0.419314
vt 0.770829 0.002447
vt 0.692046 0.002447
vt 0.692046 0.419314
vt 0.486195 0.002447
vt 0.486195 0.419314
vt 0.564978 0.419314
vt 0.564978 0.002447
vt 0.608818 0.002447
vt 0.608818 0.419314
vt 0.687601 0.419314
vt 0.687601 0.002447
vt 0.926037 0.419313
vt 0.926037 0.002446
vt 0.847254 0.002446
vt 0.847254 0.419313
vt 0.828203 0.423252
vt 0.828203 0.771736
vt 0.479719 0.771736
vt 0.479719 0.423252
vt 0.003898 0.817217
vt 0.003898 0.468733
vt 0.352382 0.468733
vt 0.352382 0.817217
vt 0.901738 0.948540
vt 0.337120 0.023940
vt 0.025641 0.442367
vt 0.024815 0.995856
vt 0.441680 0.948558
vt 0.032352 0.025626
vt 0.484869 0.996385
vt 0.164776 0.442799
vt 0.463952 0.975468
vt 0.053270 0.004709
vt 0.462597 0.969475
vt 0.143859 0.463716
vt 0.003898 0.974939
vt 0.358037 0.003023
vt 0.922655 0.969458
vt 0.004724 0.463284
vt 0.038089 0.867898
vt 0.810807 0.035657
vt 0.447206 0.384822
vt 0.386575 0.941788
vt 0.426264 0.908992
vt 0.603958 0.036065
vt 0.805557 0.902083
vt 0.929874 0.812768
vt 0.392072 0.943183
vt 0.964066 0.846959
vt 0.776615 0.001465
vt 0.420767 0.907596
vt 0.003898 0.902090
vt 0.481397 0.419014
vt 0.569766 0.001873
vt 0.839748 0.867892
vn 0.000000 1.000000 0.000000
vn 0.000000 1.000000 0.000000
vn 0.000000 1.000000 0.000000
vn 0.000000 1.000000 0.000000
vn 0.000000 -1.000000 0.000000
vn 0.000000 -1.000000 0.000000
vn 0.000000 -1.000000 0.000000
vn 0.000000 -1.000000 0.000000
vn 1.000000 0.000000 0.000000
vn 1.000000 0.000000 0.000000
vn 1.000000 0.000000 0.000000
vn 1.000000 0.000000 0.000000
vn -1.000000 0.000000 0.000000
vn -1.000000 0.000000 0.000000
vn -1.000000 0.000000 0.000000
vn -1.000000 0.000000 0.000000
vn 0.000000 0.000000 1.000000
vn 0.000000 0.000000 1.000000
vn 0.000000 0.000000 1.000000
vn 0.000000 0.000000 1.000000
vn 0.000000 0.000000 1.000000
vn 0.000000 0.000000 1.000000
vn 0.000000 0.000000 1.000000
vn 0.000000 0.000000 1.000000
vn 0.000000 0.000000 1.000000
vn 0.000000 0.000000 1.000000
vn 0.000000 0.000000 1.000000
vn 0.000000 0.000000 1.000000
vn 0.000000 0.000000 1.000000
vn 0.000000 0.000000 1.000000
vn 0.000000 0.000000 1.000000
vn 0.000000 0.000000 1.000000
vn 0.000000 0.000000 -1.000000
vn 0.000000 0.000000 -1.000000
vn 0.000000 0.000000 -1.000000
vn 0.000000 0.000000 -1.000000
vn 0.000000 0.000000 -1.000000
vn 0.000000 0.000000 -1.000000
vn 0.000000 0.000000 -1.000000
vn 0.000000 0.000000 -1.000000
vn 0.000000 0.000000 -1.000000
vn 0.000000 0.000000 -1.000000
vn 0.000000 0.000000 -1.000000
vn 0.000000 0.000000 -1.000000
vn 0.000000 0.000000 -1.000000
vn 0.000000 0.000000 -1.000000
vn 0.000000 0.000000 -1.000000
vn 0.000000 0.000000 -1.000000
vn 0.000000 1.000000 0.000000
vn 0.000000 1.000000 0.000000
vn 0.000000 1.000000 0.000000
vn 0.000000 1.000000 0.000000
vn -1.000000 0.000000 0.000000
vn -1.000000 0.000000 0.000000
vn -1.000000 0.000000 0.000000
vn -1.000000 0.000000 0.000000
vn 0.000000 -1.000000 0.000000
vn 0.000000 -1.000000 0.000000
vn 0.000000 -1.000000 0.000000
vn 0.000000 -1.000000 0.000000
vn 1.000000 0.000000 0.000000
vn 1.000000 0.000000 0.000000
vn 1.000000 0.000000 0.000000
vn 1.000000 0.000000 0.000000
vn 0.000000 1.000000 0.000000
vn 0.000000 1.000000 0.000000
vn 0.000000 1.000000 0.000000
vn 0.000000 1.000000 0.000000
vn 0.000000 0.000000 1.000000
vn 0.000000 0.000000 1.000000
vn 0.000000 0.000000 1.000000
vn 0.000000 0.000000 1.000000
vn 0.000000 0.000000 -1.000000
vn 0.000000 0.000000 -1.000000
vn 0.000000 0.000000 -1.000000
vn 0.000000 0.000000 -1.000000
vn 0.000000 -1.000000 0.000000
vn 0.000000 -1.000000 0.000000
vn 0.000000 -1.000000 0.000000
vn 0.000000 -1.000000 0.000000
vn 0.000000 1.000000 0.000000
vn 0.000000 1.000000 0.000000
vn 0.000000 1.000000 0.000000
vn 0.000000 1.000000 0.000000
vn 0.000000 -1.000000 0.000000
vn 0.000000 -1.000000 0.000000
vn 0.000000 -1.000000 0.000000
vn 0.000000 -1.000000 0.000000
vn 1.000000 0.000000 0.000000
vn 1.000000 0.000000 0.000000
vn 1.000000 0.000000 0.000000
vn 1.000000 0.000000 0.000000
vn -1.000000 0.000000 0.000000
vn -1.000000 0.000000 0.000000
vn -1.000000 0.000000 0.000000
vn -1.000000 0.000000 0.000000
vn 0.000000 0.000000 -1.000000
vn 0.000000 0.000000 -1.000000
vn -0.000000 0.000000 -1.000000
vn -0.000000 0.000000 -1.000000
vn -0.000000 0.000000 1.000000
vn -0.000000 0.000000 1.000000
vn 0.000000 0.000000 1.000000
vn 0.000000 0.000000 1.000000
vn 0.000000 0.000000 1.000000
vn 0.000000 0.000000 1.000000
vn -0.000000 0.000000 1.000000
vn -0.000000 0.000000 1.000000
vn -0.000000 0.000000 -1.000000
vn -0.000000 0.000000 -1.000000
vn 0.000000 0.000000 -1.000000
vn 0.000000 0.000000 -1.000000
vn -0.000000 0.000000 1.000000
vn -0.000000 0.000000 1.000000
vn -0.000000 0.000000 1.000000
vn -0.000000 0.000000 1.000000
vn -0.000000 0.000000 -1.000000
vn -0.000000 0.000000 -1.000000
vn -0.000000 0.000000 -1.000000
vn -0.000000 0.000000 -1.000000
vn 0.000000 0.000000 -1.000000
vn 0.000000 0.000000 -1.000000
vn 0.000000 0.000000 -1.000000
vn 0.000000 0.000000 -1.000000
vn 0.000000 0.000000 1.000000
vn 0.000000 0.000000 1.000000
vn 0.000000 0.000000 1.000000
vn 0.000000 0.000000 1.000000
vn 0.000000 1.000000 0.000000
vn 0.000000 1.000000 0.000000
vn 0.000000 1.000000 0.000000
vn 0.000000 1.000000 0.000000
vn -1.000000 0.000000 0.000000
vn -1.000000 0.000000 0.000000
vn -1.000000 0.000000 0.000000
vn -1.000000 0.000000 0.000000
vn 0.000000 -1.000000 0.000000
vn 0.000000 -1.000000 0.000000
vn 0.000000 -1.000000 0.000000
vn 0.000000 -1.000000 0.000000
vn 1.000000 0.000000 0.000000
vn 1.000000 0.000000 0.000000
vn 1.000000 0.000000 0.000000
vn 1.000000 0.000000 0.000000
vn 0.000000 0.000000 1.000000
vn 0.000000 0.000000 1.000000
vn 0.000000 0.000000 1.000000
vn 0.000000 0.000000 1.000000
vn 0.000000 0.000000 -1.000000
vn 0.000000 0.000000 -1.000000
vn 0.000000 0.000000 -1.000000
vn 0.000000 0.000000 -1.000000
s off
g Bathroom_Gallery_Window
usemtl Bathroom_Gallery_WindowSG
f 3/1/1 4/2/2 6/3/3 5/4/4
f 7/5/5 8/6/6 2/7/7 1/8/8
f 2/9/9 8/10/10 6/11/11 4/12/12
f 7/13/13 1/14/14 3/15/15 5/16/16
f 1/17/17 2/152/18 10/143/19 9/20/20
f 2/18/21 4/150/22 11/139/23 10/19/24
f 4/21/25 3/149/26 12/137/27 11/22/28
f 1/151/29 9/142/30 12/23/31 3/24/32
f 5/25/33 6/148/34 14/140/35 13/28/36
f 6/26/37 8/146/38 15/144/39 14/27/40
f 8/29/41 7/145/42 16/141/43 15/30/44
f 16/31/45 7/32/46 5/147/47 13/138/48
f 9/33/49 10/34/50 15/35/51 16/36/52
f 10/37/53 11/38/54 14/39/55 15/40/56
f 11/41/57 12/42/58 13/43/59 14/44/60
f 12/45/61 9/46/62 16/47/63 13/48/64
f 17/49/65 18/50/66 20/51/67 19/52/68
f 18/53/69 17/54/70 22/55/71 21/56/72
f 19/57/73 20/58/74 24/59/75 23/60/76
f 21/61/77 22/62/78 23/63/79 24/64/80
f 33/65/81 36/68/82 35/67/83 34/66/84
f 37/69/85 40/72/86 39/71/87 38/70/88
f 39/73/89 34/76/90 35/75/91 38/74/92
f 37/77/93 36/80/94 33/79/95 40/78/96
f 27/121/97 33/135/98 34/83/99 28/82/100
f 30/124/101 35/133/102 36/87/103 29/86/104
f 31/125/105 37/131/106 38/91/107 32/90/108
f 26/127/109 39/129/110 40/95/111 25/94/112
f 32/128/113 38/132/114 35/88/115 30/85/116
f 28/123/117 34/136/118 39/96/119 26/93/120
f 25/126/121 40/130/122 33/84/123 27/81/124
f 29/122/125 36/134/126 37/92/127 31/89/128
f 25/97/129 31/100/130 32/99/131 26/98/132
f 26/101/133 32/104/134 30/103/135 28/102/136
f 28/105/137 30/108/138 29/107/139 27/106/140
f 27/109/141 29/112/142 31/111/143 25/110/144
f 42/113/145 41/114/146 44/115/147 43/116/148
f 45/117/149 46/118/150 48/119/151 47/120/152
